<svg width="14" height="10">
  <rect x="0" y="0" width="2" height="2" fill="#000"/>
  <rect x="3" y="0" width="2" height="2" fill="#000"/>
  <rect x="6" y="0" width="2" height="2" fill="#000"/>
  <rect x="9" y="0" width="2" height="2" fill="#000"/>
  <rect x="12" y="0" width="2" height="2" fill="#000"/>
  <rect x="0" y="2" width="2" height="2" fill="#000"/>
  <rect x="3" y="2" width="2" height="2" fill="#000"/>
  <rect x="6" y="2" width="2" height="2" fill="#000"/>
  <rect x="9" y="2" width="2" height="2" fill="#000"/>
  <rect x="12" y="2" width="2" height="2" fill="#000"/>
  <rect x="0" y="4" width="2" height="2" fill="#000"/>
  <rect x="3" y="4" width="2" height="2" fill="#000"/>
  <rect x="6" y="4" width="2" height="2" fill="#000"/>
  <rect x="9" y="4" width="2" height="2" fill="#000"/>
  <rect x="12" y="4" width="2" height="2" fill="#000"/>
  <rect x="0" y="6" width="2" height="2" fill="#000"/>
  <rect x="3" y="6" width="2" height="2" fill="#000"/>
  <rect x="6" y="6" width="2" height="2" fill="#000"/>
  <rect x="9" y="6" width="2" height="2" fill="#000"/>
  <rect x="12" y="6" width="2" height="2" fill="#000"/>
  <rect x="0" y="8" width="2" height="2" fill="#000"/>
  <rect x="3" y="8" width="2" height="2" fill="#000"/>
  <rect x="6" y="8" width="2" height="2" fill="#000"/>
  <rect x="9" y="8" width="2" height="2" fill="#000"/>
  <rect x="12" y="8" width="2" height="2" fill="#000"/>
</svg>
